# xmcd
#
# Track frame offsets: 
#        150
#        13945
#        28327
#        43505
#        56215
#        71307
#        92152
#        109247
#        121065
#        138355
#
# Disc length: 2059 seconds
#
# Revision: 6
# Processed by: cddbd v1.5.2PL0 Copyright (c) Steve Scherf et al.
# Submitted via: ExactAudioCopy v0.99pb4
#
DISCID=8a08090a
DTITLE=Waylon Jennings, Willie Nelson, Johnny Cash and Kris Kristoffer
DTITLE=sen - Highwayman
DYEAR=1985
DGENRE=Country
TTITLE0=Highwayman
TTITLE1=The Last Cowboy Song
TTITLE2=Jim, I Wore A Tie Today
TTITLE3=Big River
TTITLE4=Committed To Parkview
TTITLE5=Desperados Waiting For A Train
TTITLE6=Deportee (Plane Wreck At Los Gatos)
TTITLE7=Welfare Line
TTITLE8=Against The Wind
TTITLE9=The Twentieth Century Is Almost Over
EXTD=
EXTT0=
EXTT1=
EXTT2=
EXTT3=
EXTT4=
EXTT5=
EXTT6=
EXTT7=
EXTT8=
EXTT9=
PLAYORDER=
